<svg width="473" height="473" viewBox="0 0 473 473" fill="none" xmlns="http://www.w3.org/2000/svg">
<path d="M258.753 449.464L236.125 472.091L213.498 449.464L236.125 426.836L258.753 449.464ZM369.396 338.82L335.455 372.761L301.514 338.82L335.455 304.879L369.396 338.82ZM160.593 328.676L126.651 362.617L92.71 328.676L126.651 294.734L160.593 328.676ZM303.3 262.637L236.125 329.812L168.95 262.637L236.125 195.461L303.3 262.637ZM67.8818 236.173L33.9404 270.114L0 236.173L33.9404 202.232L67.8818 236.173ZM472.347 236.173L438.406 270.114L404.465 236.173L438.406 202.232L472.347 236.173ZM190.594 179.93L123.418 247.104L56.2432 179.93L123.418 112.755L190.594 179.93ZM416.056 179.882L348.88 247.057L281.705 179.882L348.88 112.706L416.056 179.882ZM325.976 89.8018L236.174 179.604L146.371 89.8018L236.174 0L325.976 89.8018Z" fill="url(#paint0_linear_147_224)"/>
<defs>
<linearGradient id="paint0_linear_147_224" x1="236.173" y1="0" x2="236.173" y2="472.091" gradientUnits="userSpaceOnUse">
<stop stop-color="#00AAFF"/>
<stop offset="1" stop-color="#0B5399"/>
</linearGradient>
</defs>
</svg>
